<svg width="128" height="25" viewBox="0 0 128 25" fill="none" xmlns="http://www.w3.org/2000/svg">
<path d="M120.701 5.65283H117.755V18.7898H120.701V14.9681H121.975L124.522 18.7898H127.866V16.8789H126.513L124.284 13.6942L127.15 9.47449H124.284L121.975 12.8184H120.701V5.65283Z" fill="black"/>
<path d="M108.28 9.47448H103.981V11.4649H105.892V18.8694H108.838V12.3407C109.873 11.3057 112.261 11.1465 112.421 12.9777V18.8694H115.366V11.863C114.411 8.43944 110.51 8.59868 108.599 10.828L108.28 9.47448Z" fill="black"/>
<path fill-rule="evenodd" clip-rule="evenodd" d="M102.628 16.5605L102.628 12.3407C102.07 8.28023 96.2581 8.91718 94.2677 10.1114L94.2677 12.4204C96.2581 11.0669 99.3632 10.9076 99.8409 12.6592L99.8409 13.3758C98.0097 12.7388 93.3918 12.9777 93.3918 16.0828C93.3918 19.0287 97.4524 20.0637 99.8848 18.1002C99.8848 18.1002 101.194 19.9044 103.822 18.7102L103.822 17.0382C102.628 17.3567 102.628 16.5605 102.628 16.5605ZM99.8409 16.242L99.8409 15.0478C98.8855 14.6497 96.3377 14.6497 96.3377 16.0032C96.3377 17.2323 98.4078 17.5955 99.8409 16.242Z" fill="black"/>
<path fill-rule="evenodd" clip-rule="evenodd" d="M84.8728 18.7914L82.0065 18.7914L82.0065 5.65285L85.032 5.65285L85.032 10.4299C87.2613 7.80251 92.118 9.0764 92.118 14.3328C92.118 19.1083 86.8632 20.4618 84.8728 17.5971L84.8728 18.7914ZM85.032 15.9097L85.032 12.6024C86.2364 11.3424 89.1721 11.2637 89.1721 14.3348C89.1721 17.4059 86.0858 17.0122 85.032 15.9097Z" fill="black"/>
<path fill-rule="evenodd" clip-rule="evenodd" d="M75.3982 19.0504C78.2564 19.0504 80.6519 17.3566 80.6519 14.1937C80.6519 10.9076 78.2564 9.23563 75.3982 9.23563C72.54 9.23563 70.223 11.0668 70.223 14.1937C70.223 17.1974 72.54 19.0504 75.3982 19.0504ZM75.3808 16.7197C76.6464 16.7197 77.7071 15.8129 77.7071 14.1194C77.7071 12.3601 76.6464 11.4649 75.3808 11.4649C74.1152 11.4649 73.0893 12.4454 73.0893 14.1194C73.0893 15.7276 74.1152 16.7197 75.3808 16.7197Z" fill="black"/>
<path d="M64.8886 9.39489H60.5893V11.465H62.5001V18.8694H65.3664V13.0573C66.481 11.7834 67.4364 11.7834 69.2676 11.9427V9.39489C66.0829 8.75795 65.3664 11.465 65.3664 11.465L64.8886 9.39489Z" fill="black"/>
<path fill-rule="evenodd" clip-rule="evenodd" d="M56.1307 9.39488H58.997V18.6305C58.0415 24.5223 50.8759 22.293 49.8409 21.7356V19.5063C52.4683 21.0191 55.4142 20.9395 56.1307 18.6305V17.3567C53.5829 19.9044 48.8855 18.5509 48.8855 13.8535C48.8855 9.63374 53.3441 7.7229 56.1307 10.5892V9.39488ZM56.1307 12.2611V15.6051C54.8568 16.879 51.7517 16.9586 51.7517 13.8535C51.7517 10.7484 55.0161 11.1465 56.1307 12.2611Z" fill="black"/>
<path fill-rule="evenodd" clip-rule="evenodd" d="M36.1466 8.121V6.05093H43.0734L48.2485 18.7898H44.9842L43.9492 16.1624H38.5352L37.5797 18.7898H34.395L38.6944 8.121H36.1466ZM43.0734 13.8535L41.2422 9.07641L39.4109 13.8535H43.0734Z" fill="black"/>
<rect width="25" height="25" fill="#00CD69"/>
<path d="M12.5 0L25 12.5L12.5 25L0 12.5L12.5 0Z" fill="white"/>
</svg>
